<svg xmlns="http://www.w3.org/2000/svg" width="40" height="40" viewBox="0 0 533.5 544.3">
  <path fill="#4285F4" d="M533.5 278.4c0-17.4-1.6-34.1-4.6-50.2H272v95h146.9c-6.3 34-25 62.8-53.5 82v67h86.3c50.5-46.5 81.8-115.2 81.8-193.8z"></path>
  <path fill="#34A853" d="M272 544.3c72.7 0 133.6-24 178.2-65.3l-86.3-67c-24 16.1-54.7 25.4-91.9 25.4-70.7 0-130.6-47.8-152-112.1H30.6v70.4C75.2 482.5 166.3 544.3 272 544.3z"></path>
  <path fill="#FBBC04" d="M120 325.3c-10.2-30-10.2-62.5 0-92.5V162.4H30.6c-38.9 77.8-38.9 170.5 0 248.3L120 325.3z"></path>
  <path fill="#EA4335" d="M272 107.7c39.6-.6 77.5 13.8 106.5 40.2l79.5-79.5C407.8 23.7 341.3-.3 272 0 166.3 0 75.2 61.8 30.6 162.4l89.4 70.4C141.4 155.5 201.3 107.7 272 107.7z"></path>
</svg>
