<svg xmlns="http://www.w3.org/2000/svg" width="40" height="40" viewBox="0 0 512 512">
  <path fill="#1DA1F2" d="M459.4 151.7c.3 4.5.3 9.1.3 13.6 0 138.7-105.6 298.6-298.6 298.6-59.5 0-114.7-17.2-161.1-47.1 8.4 1 16.6 1.3 25.2 1.3 49.2 0 94.3-16.6 130.3-44.8-46.1-.8-84.8-31.2-98.1-72.9 6.5 1 13.1 1.6 19.8 1.6 9.4 0 18.7-1.3 27.4-3.6-48.1-9.7-84.3-52.1-84.3-103v-1.3c14.3 7.9 30.9 12.9 48.4 13.5-28.4-19-47.1-51.2-47.1-87.7 0-19.4 5.2-37.6 14.3-53.1 51.9 63.7 129.3 105.4 216.5 109.8-1.8-7.7-2.6-15.9-2.6-24.1 0-57.8 46.9-104.7 104.7-104.7 30.2 0 57.5 12.7 76.6 33.1 23.9-4.5 46.3-13.4 66.5-25.4-7.9 24.7-24.7 45.4-46.9 58.4 21.2-2.3 41.5-8.1 60.3-16.2-14.3 20.8-32.2 39.2-52.6 54z"></path>
</svg>
